<?xml version="1.0" encoding="utf-8"?>
<!-- Generator: Adobe Illustrator 24.1.1, SVG Export Plug-In . SVG Version: 6.00 Build 0)  -->
<svg version="1.1" id="Layer_1" xmlns="http://www.w3.org/2000/svg" xmlns:xlink="http://www.w3.org/1999/xlink" x="0px" y="0px"
	 viewBox="0 0 1000 720" style="enable-background:new 0 0 1000 720;" xml:space="preserve">
<style type="text/css">
	.st0{fill:#FDFDFD;}
	.st1{fill:#0E2668;}
	.st2{fill:#7F8084;}
	.st3{fill:#A3ACAA;}
	.st4{fill:#037BC1;}
	.st5{fill:#047AC0;}
	.st6{fill:#057AC0;}
	.st7{fill:#A2ABAA;}
	.st8{fill:#7D7E84;}
	.st9{fill:#047BC0;}
	.st10{fill:#067ABF;}
	.st11{fill:#057ABF;}
	.st12{fill:#F7F8F9;}
	.st13{fill:#F4F4F6;}
	.st14{fill:#9DA7A7;}
	.st15{fill:#077ABF;}
	.st16{fill:#0879BE;}
	.st17{fill:#9CA5A6;}
	.st18{fill:#EFF0F3;}
	.st19{fill:#0B78BB;}
	.st20{fill:#EBECF0;}
	.st21{fill:#DADDE4;}
	.st22{fill:#2372AA;}
	.st23{fill:#2580B6;}
	.st24{fill:#0F2668;}
	.st25{fill:#1A306C;}
</style>
<g>
	<path class="st0" d="M183.4,699.33c0-217.67,0-435.33,0-653c201.67,0,403.33,0,605,0c0,217.67,0,435.33,0,653
		C586.73,699.33,385.07,699.33,183.4,699.33z M295.25,235.45c0.31,0.41,0.63,0.82,0.94,1.23c-1.88,2.06-3.48,4.45-5.69,6.12
		c-21.86,16.49-38.95,36.8-51.93,59.93c-20.86,37.18-26.17,77.34-23.08,118.78c0.19,2.49,1.19,5.05,2.35,7.34
		c18.65,36.96,43.09,70.49,68.95,103.17c0.53,0.94,1.06,1.89,1.58,2.83c0.3-0.11,0.59-0.23,0.89-0.34c-0.43-1.18-0.86-2.36-1.3-3.54
		c-4.34-16.43-9.89-32.67-12.82-49.33c-11.18-63.6,2.9-122.13,41.89-175.21c1.1-1.5,2.61-2.74,3.93-4.1
		c-0.21,3.73-1.34,6.72-2.9,9.49c-23.3,41.46-32.26,85.55-27.59,132.2c4.05,40.53,18.16,77.76,40.51,112.49
		c9.27,14.41,23.36,24.09,36.83,33.98c16.8,12.33,34.39,24.32,53.33,33.31c29.74,14.11,60.12,27.75,91.61,37.73
		c72.74,23.05,148.14,28.67,224.48,24.43c12.23-0.68,24.41-2.01,36.62-3.04c-30.79-7.85-61.2-15.1-89.55-28.99
		c-23.08-11.31-45.74-22.68-65.56-38.97c-20.1-16.52-36.15-35.65-48.15-57.95c-1.25-2.33-1.99-4.9-2.96-7.36
		c18.13,24.31,38.81,45.6,65.13,62.18c26.27,16.55,54.67,27.46,85.49,33.58c-40.82-25.81-74.25-57.12-90.54-103.89
		c12.53,12.18,23.04,23.67,34.99,33.64c11.81,9.85,24,19.87,41.98,23.67c-29.85-30.55-48.69-64.43-55.05-105.35
		c13.71,10.59,26.39,20.38,39.06,30.17c-2.2-9.28-6.29-17.4-8.97-25.92c-5.2-16.47-10.24-33.12-6.41-50.63
		c2.26-10.32,5.56-20.47,7.12-30.87c0.99-6.58,1.41-14.17-1.17-20.03c-2.21-5.01-3.32-9.39-2.88-14.53
		c0.33-3.85,0.72-7.76,0.41-11.6c-0.74-9.36-1.87-18.7-2.89-28.51c-5.79,6.8-10.65,12.51-15.8,18.56
		c-5.04-9.69-9.47-18.13-13.81-26.62c-0.54-1.05-1.23-2.64-0.78-3.45c5.43-9.73,12.98-17.78,21.83-24.74c0.8,0.18,1.6,0.37,2.4,0.55
		c-0.89,10.74-1.79,21.47-2.83,33.93c8.99-6.17,17.84-11.13,25.15-17.63c5.33-4.74,10.57-8.46,17.7-9.85
		c4.6-0.89,7.05-3.59,8.72-7.84c8.23-20.99,5.25-41.29-2.96-61.6c-4.21-10.41-11.55-17.72-21.46-23.3
		c-13.03-7.34-25.87-14.98-38.88-22.37c-3.55-2.01-4.99-4.11-4-8.37c0.86-3.67,1.21-8.55-0.69-11.44
		c-3.13-4.76-7.82-8.93-12.68-12.29c-6.83-4.71-9.55-10.27-7.95-18.08c1.26-6.16-0.18-11.56-5.52-16
		c-15.19-12.62-30.11-25.52-45.29-38.16c-10.1-8.41-20.5-16.5-30.65-24.86c-2.86-2.35-5.3-5.16-9.08-8.89
		c2.25,16.02,4.25,30.18,6.44,45.75c-18.22-18.85-39.21-30.35-63.38-40.71c7.08,10.97,12.98,20.13,18.89,29.28
		c-0.47,0.43-0.94,0.85-1.41,1.28c-13.86-8.84-28.14-17.77-45.04-18.58c-16.51-0.79-33.17,1.15-49.77,1.89
		c8.16,4.63,16.52,7.87,24.77,11.35c18.23,7.71,18.46,7.92,23.17,15.16c-7.11-2.75-12.67-5.48-18.57-7.07
		c-11.61-3.13-23.33-6.04-35.18-8.2c-4.84-0.88-10.42-0.43-15.15,0.95c-11.61,3.38-22.92,7.68-34.36,11.57
		c-14.37,4.88-28.77,9.69-43.12,14.61c-3.06,1.05-5.99,2.44-10.64,4.36c22.29,2.13,42.55,4.06,62.8,5.99
		c-22.93,2.77-45.86,4.62-68.81,6.18c-7.35,0.5-13.3,2.65-17.55,8.65c-8.35,11.78-17.45,23.11-25.32,35.16
		c-11.93,18.25-23.07,36.96-34.55,55.47c-0.23,0.39-0.46,0.78-0.69,1.17c0.47-0.16,0.95-0.33,1.42-0.49
		c20.46-11.4,41.73-20.77,66.38-24.19c-0.66,1.39-0.7,1.67-0.85,1.73c-1.44,0.65-2.88,1.29-4.34,1.89
		c-23.45,9.57-44.04,22.95-61.87,40.27c-5.28,5.13-8.44,10.61-9.81,17.75c-4.53,23.53-3.34,47.11-1.99,70.73
		c0.37,6.47,0.95,12.94,1.43,19.41c0.63,0.07,1.26,0.14,1.89,0.22c0.64-2.11,1.14-4.26,1.94-6.32c6.2-16.07,10.94-32.84,19-48.04
		C239.19,275.94,265.2,253.7,295.25,235.45z"/>
	<path class="st1" d="M210.55,232.26c11.48-18.51,22.62-37.22,34.55-55.47c7.87-12.05,16.96-23.38,25.32-35.16
		c4.26-6,10.2-8.15,17.55-8.65c22.95-1.56,45.88-3.41,68.81-6.18c-20.26-1.93-40.51-3.87-62.8-5.99c4.65-1.92,7.58-3.31,10.64-4.36
		c14.35-4.92,28.75-9.72,43.12-14.61c11.45-3.89,22.75-8.18,34.36-11.57c4.74-1.38,10.32-1.83,15.15-0.95
		c11.85,2.15,23.57,5.07,35.18,8.2c5.9,1.59,11.47,4.32,18.57,7.07c-4.71-7.24-4.95-7.45-23.17-15.16
		c-8.25-3.49-16.61-6.73-24.77-11.35c16.6-0.74,33.26-2.68,49.77-1.89c16.89,0.81,31.18,9.74,45.04,18.58
		c0.47-0.43,0.94-0.85,1.41-1.28c-5.9-9.15-11.81-18.31-18.89-29.28c24.16,10.36,45.15,21.86,63.38,40.71
		c-2.19-15.57-4.18-29.73-6.44-45.75c3.78,3.73,6.22,6.53,9.08,8.89c10.15,8.36,20.55,16.45,30.65,24.86
		c15.17,12.64,30.09,25.54,45.29,38.16c5.34,4.44,6.78,9.85,5.52,16c-1.6,7.81,1.12,13.37,7.95,18.08
		c4.86,3.35,9.54,7.53,12.68,12.29c1.9,2.89,1.54,7.77,0.69,11.44c-0.99,4.26,0.45,6.35,4,8.37c13,7.39,25.85,15.03,38.88,22.37
		c9.91,5.58,17.25,12.88,21.46,23.3c8.21,20.31,11.19,40.61,2.96,61.6c-1.67,4.25-4.12,6.95-8.72,7.84
		c-7.13,1.38-12.37,5.11-17.7,9.85c-7.3,6.5-16.15,11.46-25.15,17.63c1.04-12.46,1.93-23.2,2.83-33.93c-0.8-0.18-1.6-0.37-2.4-0.55
		c-8.86,6.96-16.41,15.01-21.83,24.74c-0.45,0.81,0.24,2.4,0.78,3.45c4.34,8.49,8.77,16.93,13.81,26.62
		c5.15-6.05,10.01-11.76,15.8-18.56c1.02,9.81,2.15,19.14,2.89,28.51c0.3,3.84-0.08,7.74-0.41,11.6c-0.44,5.14,0.67,9.51,2.88,14.53
		c2.58,5.86,2.16,13.44,1.17,20.03c-1.57,10.4-4.86,20.55-7.12,30.87c-3.83,17.51,1.21,34.16,6.41,50.63
		c2.69,8.52,6.77,16.64,8.97,25.92c-12.68-9.79-25.35-19.58-39.06-30.17c6.36,40.92,25.2,74.79,55.05,105.35
		c-17.98-3.8-30.17-13.82-41.98-23.67c-11.95-9.97-22.46-21.47-34.99-33.64c16.29,46.77,49.71,78.08,90.54,103.89
		c-30.82-6.13-59.23-17.04-85.49-33.58c-26.32-16.58-47-37.87-65.13-62.18c0.98,2.46,1.71,5.03,2.96,7.36
		c12,22.3,28.04,41.44,48.15,57.95c19.82,16.28,42.48,27.66,65.56,38.97c28.35,13.89,58.77,21.13,89.55,28.99
		c-12.21,1.03-24.39,2.36-36.62,3.04c-76.34,4.24-151.73-1.38-224.48-24.43c-31.49-9.98-61.86-23.62-91.61-37.73
		c-18.94-8.98-36.53-20.97-53.33-33.31c-13.48-9.89-27.56-19.58-36.83-33.98c-22.35-34.73-36.46-71.96-40.51-112.49
		c-4.66-46.65,4.29-90.74,27.59-132.2c1.56-2.77,2.7-5.75,2.9-9.49c-1.32,1.36-2.83,2.6-3.93,4.1
		c-38.99,53.08-53.07,111.61-41.89,175.21c2.93,16.65,8.47,32.9,12.82,49.33c-0.39,0.35-0.79,0.7-1.18,1.05
		c-25.86-32.68-50.31-66.21-68.95-103.17c-1.15-2.29-2.16-4.85-2.35-7.34c-3.08-41.44,2.22-81.6,23.08-118.78
		c12.98-23.13,30.06-43.44,51.93-59.93c2.21-1.67,3.81-4.06,5.69-6.12c0.24-0.4,0.48-0.8,0.72-1.21c-0.55-0.01-1.11-0.02-1.66-0.03
		c-30.04,18.25-56.06,40.5-72.19,70.93c-8.06,15.2-12.8,31.97-19,48.04c-0.79,2.06-1.3,4.21-1.94,6.32
		c-0.63-0.07-1.26-0.14-1.89-0.22c-0.48-6.47-1.06-12.93-1.43-19.41c-1.35-23.62-2.54-47.21,1.99-70.73
		c1.37-7.14,4.53-12.62,9.81-17.75c17.82-17.32,38.42-30.7,61.87-40.27c1.46-0.6,2.91-1.24,4.34-1.89c0.14-0.07,0.18-0.34,0.85-1.73
		c-24.65,3.42-45.92,12.79-66.38,24.19C211.03,232.71,210.79,232.48,210.55,232.26z M642.48,364.87c-0.3,0.32-0.59,0.63-0.89,0.95
		c-2.28-1.48-4.55-2.96-7.78-5.06c0,5.62,0,9.5,0,12.9c2.59,0,4.85-0.17,7.05,0.05c2.16,0.21,4.28,0.83,6.44,1.27
		C648.95,365.34,648.87,365.19,642.48,364.87z M666.16,292.17c2.5,1.6,5,3.21,7.69,4.94c4.06-9.28,3.16-11.65-4.11-12.96
		c-1.22,2.7-2.45,5.41-3.68,8.13c-0.21-6.41,0.76-13.64-10.72-12.68c-0.44,3.87-0.91,7.95-1.44,12.58
		C658.49,292.18,662.32,292.18,666.16,292.17z M522.77,454.18c18.19-8.67,28.62-23.23,34.77-40.96c0.94-2.71,1.22-5.61,1.81-8.43
		c-0.64-0.39-1.29-0.77-1.93-1.16c-1.66,1.56-4.33,2.88-4.82,4.72c-4.85,18.29-17.43,31.83-30.53,45.09
		c-0.73,0.21-1.46,0.41-2.19,0.62c0.08,0.26,0.15,0.52,0.23,0.78C520.99,454.63,521.88,454.4,522.77,454.18z M706.9,275.67
		c1.4-0.31,2.81-0.63,4.21-0.94c-0.83-1.98-1.17-4.41-2.62-5.85c-2.16-2.16-5.11-3.62-7.75-5.4c3.81-1.25,6.63-2.17,10.91-3.56
		c-14.97-6.72-19.96-4.33-21.85,8.67c-0.19,1.27-0.45,2.66-0.09,3.84c0.45,1.45,1.18,3.17,2.39,4.01
		c5.38,3.77,10.98,7.27,16.49,10.87c0.5-0.1,1-0.19,1.5-0.29c-1.45-3.41-2.89-6.82-4.34-10.23
		C706.14,276.41,706.52,276.04,706.9,275.67z M648.48,220.84c7.4-0.97,14.81-1.93,23.73-3.1c-9.57-4.31-18.8-6.7-25.57-11.94
		c-9.67-7.48-19.93-7.89-31.1-6.89c-1.3,0.1-2.59,0.21-4.81,0.38c2.39,3.37,3.88,6.64,6.42,8.86
		C625.92,215.83,633.8,225.96,648.48,220.84z M586.74,175.72c3.75,1.77,7.49,3.55,12.2,5.78c0-6.84,0.88-12.53-0.19-17.87
		c-1.99-9.99,2.26-21.4-9.27-29.37c-10.68-7.38-20.03-16.46-30.94-25.61c-0.9,8-0.08,13.22,6.33,17.57
		c7.4,5.02,13.8,11.34,20.63,17.1c-0.05,4.93-0.3,9.86-0.09,14.78C585.65,163.99,586.28,169.85,586.74,175.72z M235.49,406.97
		c-0.67,9.52-1.34,19.04-2.01,28.56c0.59,0.04,1.17,0.08,1.76,0.12c0.54-5.66,1.09-11.32,1.63-16.99c0.43-2.11,0.94-4.2,1.27-6.32
		c6.8-42.79,22.92-82.06,50.09-117.07c4.83-6.22,11.09-11.43,16.17-17.5c12.22-14.59,27.53-25.38,44.88-33.92
		c1.8-0.89,3.93-3.3,3.91-4.98c-0.08-7.35-0.89-14.7-1.43-22.05c-0.57-0.39-1.13-0.78-1.7-1.17c-10.68,9.17-21.85,17.9-31.92,27.64
		c-10.75,10.4-21.01,21.35-30.53,32.77c-20.71,24.84-34.48,53.16-42.95,83.54C240.33,375.08,238.46,391.16,235.49,406.97z
		 M562.14,210.76c4.44-0.61,4.85-3.56,3.56-6.56c-0.48-1.11-3.09-1.4-4.73-2.06c-0.49,2.4-1,4.79-1.41,7.2
		c-0.05,0.3,0.47,0.69,0.72,1.04c-7.25-0.36-14.52-0.58-21.75-1.17c-1.6-0.13-3.17-1.41-4.6-2.37c-3.51-2.35-6.93-4.81-9.81-6.83
		c5.06-2.89,9.96,0.35,14.34,5.38c9.57-7.36,19.62-10.2,31.04-4.82c1.39,0.66,3.03,0.84,4.56,1.24c0.44,0.09,0.88,0.18,1.31,0.27
		c-0.26-0.26-0.51-0.52-0.77-0.78c-8.23-12.84-23.37-12.07-37.29-15.75c1.63-0.64,2-0.91,2.35-0.9c2.28,0.02,4.57,0.09,6.85,0.16
		c20,0.64,36.87,8,51.29,20.9c5.55,4.97,10.56,11.45,20.36,9.2c-7.26-9.95-12.92-20.22-26.21-25.66
		c-12.57-5.15-24.37-9.98-38.38-8.54c-4.66,0.48-9.51-0.65-14.27-1.07c-7.16-0.63-15.45-3.78-21.26-1.45
		c-16.26,6.51-31.8,14.8-46.99,23.4c-6.33,3.58-11.45,8.83-10.46,17.8c2.77,25.18,9.24,49.37,18.37,73.12
		c7.82,20.37,14.81,41.03,21.93,61.64c1.71,4.94,2.48,10.17,3.73,15.52c26.01-8.09,43.95,2.76,60.24,20.22
		c1.22-10.4,1.44-20.22,1.15-30.01c-0.25-8.16-3.11-15.15-12.2-18.14c-8.83-2.91-9.73-2.4-11.76,6.05c-0.41,1.69-0.73,3.4-1.1,5.09
		c-0.62,0-1.24,0-1.86,0.01c-0.57-6.3-2.17-12.71-1.48-18.89c1.34-11.94,4.98-22.83,17.59-29.49c5.72-3.02,10.38-8.33,14.55-13.33
		c6.29-7.55,11.74-15.73,17.87-24.1c-8.98-13.97-14.28-29.64-12.71-46.66c-9.98,0-19.69,0-28.16,0c7.63-1.75,16.46-3.78,25.28-5.81
		c-0.07-0.4-0.15-0.79-0.22-1.19C568.59,212.53,565.37,211.64,562.14,210.76z M634.77,424.44c0.54-0.08,1.08-0.15,1.62-0.23
		c-2.09,13.66-4.18,27.32-6.26,40.93c8.6,0.93,9.45,1.26,13.23-7.38c4.55-10.41,7.47-21.46,10.89-31.61
		c0.54,7.54,1.16,16.17,1.91,26.62c3.28-13.23,6.32-24.82,8.99-36.49c1.91-8.35-1.31-14.82-9.44-18.74
		c-10.91-5.25-22.41-6.96-33.37-0.76c-8.16,4.61-16,10.03-22.97,16.12c-4.15,3.62-6.51,2.95-10.21,0.34
		c-7.37-5.18-8.45-12.29-7.75-20.17c1.07-12.09-0.95-23.62-7.86-34.06c-1.56-2.36-3.79-4.33-5.06-5.75
		c0.64,17.2,1.74,34.49,1.79,51.78c0.06,17.99-6.27,34.43-17.15,50.4c8.04,0.8,15.24,0.69,21.93,2.38
		c11.44,2.89,17.26-2.96,22.77-10.69c4.02-5.65,8.6-10.94,12.93-16.39c0.61,0.27,1.22,0.53,1.83,0.8
		c-4.35,10.18-8.7,20.35-13.02,30.47c12.33,3.41,13.74,3.59,20.09-6.81C625.63,445.45,629.81,434.73,634.77,424.44z M383.91,538.97
		c-1.51-11.03-2.96-22.06-4.54-33.08c-4.79-33.36-2.96-66.45,5.32-99.12c8.18-32.28,21.97-62.53,42.44-89.49
		c9.81-12.92,6.33-24.93,3.64-38.18c-1.18,0.6-1.91,0.78-2.35,1.21c-20.35,20.27-40.67,40.16-48.12,68.91
		c-6.83,26.33-13.7,52.55-14.37,79.72c-0.41,16.3,0.05,32.7,1.47,48.95C369.24,498.89,374.67,519.27,383.91,538.97z M323.36,424.36
		c0.71,0.18,1.42,0.36,2.14,0.54c0.66-2.03,1.55-4.03,1.95-6.1c7.7-40.21,22.47-77.97,46.97-111.69
		c15.82-21.78,34.28-41.76,56.47-58.36c2.47-1.85,4.56-5.45,4.8-8.39c0.96-11.52,2.28-22.6,12.25-31.01
		c3.07-2.59,5.07-6.31,8.69-10.95c-49.55,32.03-84.28,73.14-107.13,123.35C334.57,354.59,326.56,388.97,323.36,424.36z
		 M444.9,331.31c-19.44,37.12-27.49,76.12-29.4,116.3c-1.94,40.74,9.49,104.34,20.9,118.25c-0.72-4.01-1.02-6.98-1.8-9.84
		c-5.78-21.3-9.82-42.92-9.46-64.9c0.27-16.27,1.32-32.71,4.22-48.72c3.61-19.87,8.58-39.8,20.93-56.83
		c4.71-6.5,5.76-12.07,3.37-19.52C450.11,354.88,447.87,343.34,444.9,331.31z M672.78,266.16c10.33-12.09-0.6-32.72-19.95-35.65
		c4.22,5.69,7.82,10.55,11.37,15.33c-12.27,2.89-19.42-0.15-27.43-11.77c-9.45-13.72-29.94-20.61-46.32-15.28
		c-2.31,0.75-5.31,2.64-5.92,4.58c-4.66,14.87-2.87,29.07,5.92,42.65C618.37,246.2,645.73,247.94,672.78,266.16z M361.5,184.27
		c8.12-4.56,16.74-9.42,25.4-14.21c0.97-0.54,2.51-1.15,3.34-0.79c15.96,6.87,31.96,13.67,47.7,20.97c5.17,2.4,9.33,2.89,13.73-1.43
		c-6.25-9.36-12.37-18.91-19.02-28.12c-1.23-1.71-4.57-2.88-6.95-2.89c-7.28-0.02-14.59,0.37-21.83,1.11
		C385.01,160.84,369.08,167.26,361.5,184.27z M386.33,203.7c-0.91-0.31-1.82-0.63-2.74-0.94c-3.23,7.55-6.46,15.1-9.9,23.14
		c-2.25-12.57,2.25-25.28,10.8-30.81c1.64,1.68,3.33,3.4,5.02,5.12c4.6,4.68,9.1,9.46,13.89,13.97c1.11,1.05,3.92,2.08,4.77,1.52
		c5.96-3.91,11.61-8.24,18.17-13.03c-11.87-5.32-21.84-9.54-31.55-14.22c-8.38-4.03-13.2-3.54-19.1,3.31
		c-8.48,9.85-11.31,21.65-10.56,33.84c0.44,7.15,2.2,14.79,9.52,20.5c4.64-7.63,14.47-12.19,9.31-22.98
		c-1.27-2.65-0.32-6.4,0.1-9.58C384.5,210.23,385.55,206.98,386.33,203.7z M460.45,137.65c-0.42,0.5-0.84,1.01-1.26,1.51
		c18.83,1.85,28.74,12.09,31.12,30.4c12.78-8.99,25.35-8.78,39.37-4.84c-4.53-12.16-8.41-22.59-12.33-33.09
		C497.97,133.69,479.21,135.67,460.45,137.65z M463.03,456.01c18.15-32.73,47.32-52.01,85.55-61.2c-2.67-2.17-3.95-3.41-5.42-4.39
		c-12.2-8.16-22.08-7.92-34.19,0.13C484.75,406.65,469.56,428.41,463.03,456.01z M326.04,144.91c0.04,0.28,0.08,0.56,0.12,0.83
		c0.89,0.07,1.77,0.19,2.66,0.2c34.26,0.38,68.51,0.88,102.77,0.99c5.84,0.02,9.7,1.39,13.08,6.09
		c7.11,9.88,14.89,19.33,22.12,28.61c7.9-1.19,9.19-4.91,6.87-11.07c-1.9-5.03-2.38-10.54-4.34-15.55c-0.95-2.42-3.44-5.1-5.93-6.04
		c-6.97-2.62-14.2-4.78-21.5-6.41c-8.11-1.81-16.39-3.84-24.64-3.99c-10.88-0.19-21.8,1.36-32.7,2.14
		C365.05,142.14,345.55,143.52,326.04,144.91z M574.55,169.04c-0.35-6.7-0.55-14.28-1.25-21.82c-0.22-2.35-1.1-5.31-2.83-6.75
		c-10.38-8.6-21.07-16.86-31.74-25.14c-1.2-0.94-2.89-1.32-5.96-2.65c8.02,8.92,14.77,16.42,21.53,23.93
		c-0.56,0.65-1.12,1.3-1.68,1.96c-6.29-1.66-12.58-3.33-19.13-5.06c0,1.04-0.28,1.96,0.04,2.63c4.5,9.38,8.79,18.88,13.89,27.97
		c1.12,1.99,5.12,3.14,7.98,3.55C561.28,168.49,567.27,168.56,574.55,169.04z M351.53,162.32c-33.41,8.74-66.1,17.87-95.6,35.11
		c3.2-0.04,6.29-0.47,9.29-1.2c22.77-5.59,45.75-9.52,69.45-8.27c1.49,0.08,3.78-1.26,4.51-2.54
		C343.36,178.08,347.17,170.56,351.53,162.32z M626.19,583.27c-18.47-27.09-36.5-54.29-41.24-87.1c-3.68,0-6.4,0.05-9.13-0.02
		c-2.62-0.07-5.24-0.26-8.63-0.43C577.12,531.23,596.45,560.28,626.19,583.27z M566.96,324.68c16.88,6.95,28.61,18.34,35.58,34.11
		c16.35-16.92,11.85-36.47-4.92-38.89c2.46,4.83,5.01,9.81,7.56,14.79C587.14,314.64,583.48,313.73,566.96,324.68z M608.8,282.45
		c12.41,13.74,15.55,28.71,15.11,45.98c11.56-13.63,13.01-27.93,12.27-42.75c-0.45-8.86-4.31-12.11-13.41-9.94
		C618.05,276.85,613.86,279.93,608.8,282.45z M602.34,389.93c9.95-2.1,21.17-6.8,25.28-16.49c4.64-10.91,1.97-23.38-0.6-33.82
		C618.93,356.09,610.61,373.07,602.34,389.93z M531.46,470.66c28.26,15.1,57.48,20.02,88.35,7.64
		C589.89,480.65,560.54,477.1,531.46,470.66z M611.91,189.44c1.94-2.17,2.18-2.32,2.21-2.5c2.24-13.31,4.48-26.62,6.64-39.94
		c0.12-0.75-0.11-2-0.66-2.34c-4.93-3.06-9.96-5.96-15.53-9.25c1.25,5.15,2.54,8.43,2.76,11.78c0.7,10.7,0.84,21.44,1.57,32.14
		C609.11,182.31,610.61,185.21,611.91,189.44z M355.56,112.11c20.52,8.96,36.75-1.13,53.76-7.97c-5.82-1.82-12.03-4.4-17.31-3.23
		C379.76,103.64,367.96,108.17,355.56,112.11z M675.93,307.69c0,5.63,0,10.91,0,16.79c8.22-4.85,13.77-11.15,17.38-19.23
		c3.21-7.18,2.11-9.66-5.86-11.78C682.41,297.26,686.88,307.57,675.93,307.69z M660.06,369.28c0.02,0-1.44-0.2-2.92-0.4
		c-0.87,10.3,0.56,12.69,9.71,15.33c0.84-8.19,1.66-16.19,2.48-24.2c-0.78-0.19-1.56-0.38-2.34-0.56
		C664.81,362.53,662.63,365.62,660.06,369.28z M686.51,241.46c0.44-2.91,1.4-6.08,1.22-9.2c-0.11-1.97-1.61-5.25-3.02-5.53
		c-6.16-1.24-12.53-1.59-20.55-2.45C672.8,230.93,679.61,236.16,686.51,241.46z M473.1,88.84c-9.21-5.15-17.96-4.88-26.93,0.38
		C455.39,96.99,464.16,89.76,473.1,88.84z M643.05,276.47c0,5.06,0,9.88,0,14.97c2.67,0,5.3,0,7.86,0
		C653.95,280.97,652.65,278.17,643.05,276.47z M697.12,231.71c-0.78,0.18-1.57,0.37-2.35,0.55c-0.4,4.55-0.79,9.1-1.3,14.89
		c4.53-0.89,7.83-1.53,12.41-2.43C702.47,239.65,699.79,235.68,697.12,231.71z M636.76,189.21c1.11-6.92-0.35-8.45-11.06-11.8
		c-0.6,3.07-1.19,6.08-1.89,9.68C628.49,187.85,632.62,188.53,636.76,189.21z M649.05,366.13c2.25,3.81-2.45,9.71,6.25,10.36
		C654.15,372.26,657.84,366.98,649.05,366.13z M629,540.82c-0.16-0.07-0.31-0.15-0.47-0.22c0,0.29-0.01,0.58-0.01,0.87
		c0.16-0.07,0.36-0.11,0.46-0.22C629.06,541.16,629,540.97,629,540.82z"/>
	<path class="st1" d="M287.96,530.97c0.43,1.18,0.86,2.36,1.3,3.54c-0.3,0.11-0.59,0.23-0.89,0.34c-0.53-0.94-1.06-1.89-1.58-2.83
		C287.18,531.66,287.57,531.32,287.96,530.97z"/>
	<path class="st1" d="M211.28,232.94c-0.47,0.16-0.95,0.33-1.42,0.49c0.23-0.39,0.46-0.78,0.69-1.17
		C210.79,232.48,211.03,232.71,211.28,232.94z"/>
	<path class="st2" d="M574.05,201.82c-1.52-0.4-3.17-0.59-4.56-1.25c-11.42-5.38-21.47-2.54-31.04,4.82
		c-4.38-5.03-9.28-8.28-14.34-5.38c2.88,2.02,6.3,4.48,9.81,6.83c1.43,0.96,3,2.24,4.6,2.37c7.23,0.59,14.5,0.81,21.75,1.17
		c0.62,0.13,1.24,0.25,1.86,0.38c3.23,0.89,6.45,1.77,9.68,2.66c0.07,0.4,0.15,0.79,0.22,1.19c-8.82,2.03-17.65,4.06-25.28,5.81
		c8.47,0,18.18,0,28.16,0c-1.57,17.02,3.73,32.69,12.71,46.66c-6.14,8.37-11.58,16.55-17.87,24.1c-4.16,5-8.83,10.31-14.55,13.33
		c-12.61,6.67-16.25,17.56-17.59,29.49c-0.7,6.18,0.91,12.59,1.48,18.89c0.62,0,1.24,0,1.86-0.01c0.36-1.7,0.69-3.4,1.1-5.09
		c2.03-8.44,2.93-8.95,11.76-6.05c9.08,2.99,11.95,9.97,12.2,18.14c0.29,9.8,0.07,19.61-1.15,30.01
		c-16.29-17.46-34.23-28.31-60.24-20.22c-1.26-5.34-2.02-10.57-3.73-15.52c-7.12-20.61-14.1-41.27-21.93-61.64
		c-9.12-23.75-15.59-47.94-18.37-73.12c-0.99-8.98,4.13-14.22,10.46-17.8c15.19-8.59,30.73-16.89,46.99-23.4
		c5.82-2.33,14.1,0.82,21.26,1.45c4.76,0.42,9.61,1.55,14.27,1.07c14.01-1.44,25.81,3.39,38.38,8.54
		c13.29,5.44,18.94,15.71,26.21,25.66c-9.8,2.25-14.81-4.24-20.36-9.2c-14.43-12.91-31.3-20.26-51.29-20.9
		c-2.28-0.07-4.57-0.14-6.85-0.16c-0.36,0-0.72,0.26-2.35,0.9c13.92,3.68,29.06,2.91,37.29,15.75
		C574.41,201.48,574.23,201.65,574.05,201.82z M528.96,254.35l0.37,0.35c-3.84,9.58-8.13,19.03-11.41,28.79
		c-4.9,14.56-6.28,29.59-4.69,44.88c4.82-28.19,15.73-54.01,33.43-77.16c6.22-8.14,12.96-15.93,19.47-23.87
		c0.2-0.07,0.42-0.1,0.58-0.21c0.08-0.06,0.05-0.26,0.08-0.4c-0.19,0.23-0.39,0.45-0.58,0.68c-10.52,3.84-21.14,7.47-31.53,11.6
		c-5.32,2.11-10.64,7.02-16.07,2.02c-6.61-6.07-12.38-13.04-17.93-20.03c-2.58-3.25-3.77-7.47-5.73-11.54
		c-9.46,12.9-3.25,47.44,12.2,65.46C514.35,268.12,521.65,261.24,528.96,254.35z"/>
	<path class="st3" d="M634.77,424.44c-4.96,10.29-9.14,21-15.1,30.76c-6.35,10.4-7.76,10.22-20.09,6.81
		c4.32-10.11,8.67-20.29,13.02-30.47c-0.61-0.27-1.22-0.53-1.83-0.8c-4.33,5.45-8.91,10.74-12.93,16.39
		c-5.51,7.73-11.33,13.58-22.77,10.69c-6.68-1.69-13.88-1.57-21.93-2.38c10.87-15.97,17.2-32.42,17.15-50.4
		c-0.05-17.29-1.16-34.59-1.79-51.78c1.27,1.42,3.49,3.39,5.06,5.75c6.91,10.44,8.93,21.97,7.86,34.06
		c-0.7,7.88,0.38,14.99,7.75,20.17c3.71,2.6,6.07,3.28,10.21-0.34c6.97-6.09,14.81-11.5,22.97-16.12
		c10.96-6.2,22.46-4.49,33.37,0.76c8.13,3.92,11.35,10.39,9.44,18.74c-2.67,11.67-5.71,23.26-8.99,36.49
		c-0.75-10.45-1.37-19.08-1.91-26.62c-3.42,10.15-6.34,21.2-10.89,31.61c-3.78,8.64-4.63,8.31-13.23,7.38
		c2.08-13.61,4.17-27.27,6.26-40.93C635.85,424.29,635.31,424.37,634.77,424.44z"/>
	<path class="st4" d="M383.91,538.97c-9.25-19.7-14.67-40.08-16.51-61.07c-1.42-16.25-1.88-32.65-1.47-48.95
		c0.68-27.17,7.54-53.39,14.37-79.72c7.45-28.74,27.77-48.63,48.12-68.91c0.44-0.44,1.17-0.62,2.35-1.21
		c2.68,13.25,6.17,25.26-3.64,38.18c-20.47,26.95-34.26,57.2-42.44,89.49c-8.28,32.67-10.11,65.76-5.32,99.12
		C380.95,516.91,382.4,527.94,383.91,538.97z"/>
	<path class="st5" d="M323.36,424.36c3.2-35.4,11.21-69.77,26.15-102.62c22.84-50.21,57.57-91.32,107.13-123.35
		c-3.61,4.64-5.62,8.36-8.69,10.95c-9.98,8.41-11.29,19.48-12.25,31.01c-0.25,2.94-2.34,6.55-4.8,8.39
		c-22.18,16.6-40.64,36.58-56.47,58.36c-24.5,33.72-39.28,71.48-46.97,111.69c-0.4,2.08-1.29,4.07-1.95,6.1
		C324.79,424.72,324.08,424.54,323.36,424.36z"/>
	<path class="st6" d="M444.9,331.31c2.97,12.03,5.2,23.58,8.78,34.74c2.39,7.45,1.34,13.03-3.37,19.52
		c-12.35,17.03-17.32,36.95-20.93,56.83c-2.91,16.01-3.96,32.45-4.22,48.72c-0.36,21.98,3.67,43.6,9.46,64.9
		c0.78,2.86,1.08,5.83,1.8,9.84c-11.41-13.91-22.84-77.51-20.9-118.25C417.42,407.43,425.47,368.43,444.9,331.31z"/>
	<path class="st6" d="M235.49,406.97c2.98-15.81,4.85-31.89,9.16-47.37c8.47-30.38,22.25-58.69,42.95-83.54
		c9.52-11.42,19.77-22.37,30.53-32.77c10.07-9.74,21.24-18.47,31.92-27.64c0.57,0.39,1.13,0.78,1.7,1.17
		c0.54,7.35,1.36,14.69,1.43,22.05c0.02,1.68-2.11,4.09-3.91,4.98c-17.35,8.54-32.66,19.33-44.88,33.92
		c-5.08,6.07-11.34,11.28-16.17,17.5c-27.17,35-43.29,74.28-50.09,117.07c-0.34,2.12-0.84,4.21-1.27,6.32
		C236.4,414.77,235.95,410.87,235.49,406.97z"/>
	<path class="st7" d="M672.78,266.16c-27.05-18.21-54.42-19.96-82.34-0.15c-8.79-13.57-10.58-27.77-5.92-42.65
		c0.61-1.94,3.6-3.83,5.92-4.58c16.38-5.33,36.86,1.56,46.32,15.28c8.01,11.63,15.17,14.67,27.43,11.77
		c-3.54-4.78-7.15-9.64-11.37-15.33C672.18,233.43,683.12,254.06,672.78,266.16z M595.83,242.24c13.37,0,26.55,0,39.91,0
		C627.72,232.74,609.84,232.81,595.83,242.24z"/>
	<path class="st6" d="M361.5,184.27c7.58-17,23.51-23.43,42.39-25.36c7.24-0.74,14.55-1.13,21.83-1.11
		c2.37,0.01,5.72,1.18,6.95,2.89c6.64,9.21,12.76,18.76,19.02,28.12c-4.4,4.32-8.56,3.83-13.73,1.43
		c-15.74-7.3-31.74-14.1-47.7-20.97c-0.83-0.36-2.37,0.25-3.34,0.79C378.24,174.84,369.62,179.71,361.5,184.27z"/>
	<path class="st8" d="M386.33,203.7c-0.78,3.28-1.83,6.53-2.27,9.85c-0.43,3.18-1.37,6.93-0.1,9.58
		c5.16,10.78-4.67,15.35-9.31,22.98c-7.32-5.71-9.08-13.36-9.52-20.5c-0.75-12.18,2.09-23.98,10.56-33.84
		c5.9-6.86,10.72-7.35,19.1-3.31c9.71,4.68,19.67,8.89,31.55,14.22c-6.56,4.79-12.21,9.12-18.17,13.03
		c-0.85,0.56-3.66-0.48-4.77-1.52c-4.79-4.5-9.29-9.29-13.89-13.97c-1.69-1.72-3.37-3.44-5.02-5.12
		c-8.56,5.53-13.05,18.24-10.8,30.81c3.44-8.04,6.67-15.59,9.9-23.14C384.5,203.07,385.42,203.38,386.33,203.7z"/>
	<path class="st9" d="M460.45,137.65c18.76-1.98,37.52-3.97,56.9-6.02c3.91,10.51,7.8,20.93,12.33,33.09
		c-14.01-3.95-26.59-4.15-39.37,4.84c-2.38-18.31-12.28-28.56-31.12-30.4C459.61,138.66,460.03,138.16,460.45,137.65z"/>
	<path class="st6" d="M463.03,456.01c6.53-27.6,21.72-49.35,45.94-65.45c12.11-8.05,21.99-8.29,34.19-0.13
		c1.47,0.98,2.75,2.21,5.42,4.39C510.35,404,481.18,423.28,463.03,456.01z"/>
	<path class="st10" d="M326.04,144.91c19.5-1.39,39.01-2.78,58.51-4.18c10.9-0.78,21.82-2.34,32.7-2.14
		c8.24,0.15,16.53,2.17,24.64,3.99c7.3,1.63,14.54,3.79,21.5,6.41c2.48,0.94,4.98,3.62,5.93,6.04c1.96,5.01,2.44,10.52,4.34,15.55
		c2.33,6.15,1.04,9.88-6.87,11.07c-7.23-9.27-15.01-18.73-22.12-28.61c-3.38-4.7-7.24-6.07-13.08-6.09
		c-34.26-0.11-68.51-0.61-102.77-0.99c-0.89-0.01-1.77-0.13-2.66-0.2C326.12,145.47,326.08,145.19,326.04,144.91z"/>
	<path class="st6" d="M574.55,169.04c-7.28-0.48-13.28-0.55-19.15-1.39c-2.86-0.41-6.86-1.55-7.98-3.55
		c-5.1-9.09-9.39-18.59-13.89-27.97c-0.32-0.67-0.04-1.59-0.04-2.63c6.55,1.73,12.84,3.39,19.13,5.06c0.56-0.65,1.12-1.3,1.68-1.96
		c-6.75-7.5-13.5-15.01-21.53-23.93c3.06,1.34,4.75,1.72,5.96,2.65c10.67,8.28,21.36,16.54,31.74,25.14
		c1.74,1.44,2.61,4.4,2.83,6.75C574,154.76,574.21,162.34,574.55,169.04z"/>
	<path class="st6" d="M351.53,162.32c-4.35,8.24-8.17,15.76-12.35,23.1c-0.73,1.28-3.02,2.62-4.51,2.54
		c-23.71-1.25-46.68,2.68-69.45,8.27c-3,0.74-6.09,1.16-9.29,1.2C285.43,180.19,318.12,171.06,351.53,162.32z"/>
	<path class="st11" d="M626.19,583.27c-29.74-22.99-49.07-52.04-59-87.55c3.39,0.18,6.01,0.37,8.63,0.43
		c2.73,0.07,5.45,0.02,9.13,0.02C589.69,528.98,607.72,556.18,626.19,583.27z"/>
	<path class="st10" d="M566.96,324.68c16.51-10.95,20.17-10.04,38.22,10.02c-2.55-4.98-5.09-9.97-7.56-14.79
		c16.77,2.42,21.27,21.97,4.92,38.89C595.58,343.02,583.84,331.63,566.96,324.68z M605.07,338.09c-0.06,0.16-0.12,0.33-0.17,0.49
		c0.22,0.03,0.45,0.05,0.67,0.08c-0.03-0.17-0.03-0.37-0.11-0.52C605.42,338.08,605.2,338.11,605.07,338.09z"/>
	<path class="st6" d="M585.51,143.33c-6.83-5.76-13.23-12.08-20.63-17.1c-6.41-4.35-7.22-9.57-6.33-17.57
		c10.91,9.15,20.26,18.23,30.94,25.61c11.53,7.96,7.27,19.38,9.27,29.37c1.07,5.34,0.19,11.02,0.19,17.87
		c-4.71-2.23-8.46-4.01-12.21-5.78c-0.01-3.64,0.12-7.28-0.04-10.91C586.38,157.65,585.91,150.49,585.51,143.33z"/>
	<path class="st12" d="M608.8,282.45c5.07-2.52,9.26-5.6,13.97-6.72c9.1-2.17,12.96,1.09,13.41,9.94
		c0.75,14.82-0.71,29.12-12.27,42.75C624.34,311.15,621.2,296.18,608.8,282.45z"/>
	<path class="st13" d="M602.34,389.93c8.27-16.86,16.6-33.84,24.68-50.31c2.57,10.44,5.24,22.91,0.6,33.82
		C623.5,383.13,612.28,387.84,602.34,389.93z"/>
	<path class="st3" d="M615.53,198.91c11.17-0.99,21.43-0.58,31.1,6.89c6.77,5.23,16,7.63,25.57,11.94
		c-8.92,1.16-16.33,2.13-23.73,3.1c-2.34-1.28-4.63-2.64-7.03-3.81C631.76,212.31,622.32,207.31,615.53,198.91z"/>
	<path class="st14" d="M531.46,470.66c29.08,6.44,58.44,10,88.35,7.64C588.94,490.68,559.71,485.76,531.46,470.66z"/>
	<path class="st15" d="M611.91,189.44c-1.3-4.23-2.8-7.13-3-10.11c-0.73-10.7-0.86-21.44-1.57-32.14
		c-0.22-3.35-1.52-6.64-2.76-11.78c5.57,3.29,10.6,6.19,15.53,9.25c0.54,0.34,0.78,1.59,0.66,2.34c-2.16,13.32-4.4,26.63-6.64,39.94
		C614.09,187.12,613.85,187.26,611.91,189.44z"/>
	<path class="st14" d="M705.75,276.79c1.45,3.41,2.89,6.82,4.34,10.23c-0.5,0.1-1,0.19-1.5,0.29c-5.52-3.6-11.11-7.1-16.49-10.87
		c-1.21-0.84-1.94-2.56-2.39-4.01c-0.36-1.17-0.1-2.57,0.09-3.84c1.89-13,6.89-15.4,21.85-8.67c-4.27,1.4-7.09,2.32-10.91,3.56
		c2.64,1.78,5.59,3.24,7.75,5.4c1.45,1.44,1.78,3.87,2.62,5.85c-1.4,0.31-2.81,0.63-4.21,0.94c-0.83-0.99-1.66-1.98-2.49-2.98
		c-0.44,0.35-0.88,0.69-1.33,1.04C703.97,274.75,704.86,275.77,705.75,276.79z"/>
	<path class="st16" d="M355.56,112.11c12.4-3.94,24.2-8.47,36.45-11.2c5.27-1.17,11.49,1.41,17.31,3.23
		C392.31,110.98,376.08,121.07,355.56,112.11z"/>
	<path class="st17" d="M522.06,453.45c13.1-13.26,25.68-26.8,30.53-45.09c0.49-1.84,3.16-3.16,4.82-4.72
		c0.64,0.39,1.29,0.77,1.93,1.16c-0.59,2.81-0.87,5.72-1.81,8.43c-6.15,17.73-16.58,32.28-34.77,40.96
		C522.54,453.93,522.3,453.69,522.06,453.45z"/>
	<path class="st18" d="M675.93,307.69c10.96-0.12,6.48-10.43,11.52-14.22c7.97,2.12,9.07,4.6,5.86,11.78
		c-3.61,8.08-9.17,14.38-17.38,19.23C675.93,318.6,675.93,313.32,675.93,307.69z"/>
	<path class="st8" d="M615.53,198.91c6.78,8.4,16.23,13.4,25.91,18.11c2.4,1.17,4.69,2.54,7.03,3.81
		c-14.68,5.12-22.55-5.01-31.33-12.68c-2.53-2.22-4.03-5.49-6.42-8.86C612.94,199.12,614.24,199.01,615.53,198.91z"/>
	<path class="st18" d="M660.06,369.28c2.58-3.66,4.75-6.75,6.93-9.84c0.78,0.19,1.56,0.38,2.34,0.56
		c-0.82,8.01-1.64,16.01-2.48,24.2c-9.15-2.64-10.58-5.03-9.71-15.33C658.61,369.08,660.08,369.28,660.06,369.28z"/>
	<path class="st19" d="M686.51,241.46c-6.9-5.3-13.7-10.53-22.35-17.18c8.03,0.86,14.39,1.21,20.55,2.45
		c1.42,0.28,2.91,3.56,3.02,5.53C687.91,235.38,686.95,238.56,686.51,241.46z"/>
	<path class="st18" d="M666.15,292.18c-3.83,0-7.66,0-12.25,0c0.53-4.64,1-8.72,1.44-12.58c11.48-0.96,10.51,6.27,10.72,12.68
		L666.15,292.18z"/>
	<path class="st19" d="M473.1,88.84c-8.94,0.92-17.71,8.15-26.93,0.38C455.13,83.96,463.89,83.69,473.1,88.84z"/>
	<path class="st13" d="M642.48,364.87c6.39,0.32,6.47,0.47,4.82,10.11c-2.17-0.44-4.28-1.06-6.44-1.27
		c-2.21-0.22-4.46-0.05-7.05-0.05c0-3.4,0-7.27,0-12.9c3.23,2.1,5.51,3.58,7.78,5.06c0.13,1.29,0.26,2.58,0.38,3.88
		c0.36-0.03,0.71-0.07,1.07-0.1C642.86,368.02,642.67,366.45,642.48,364.87z"/>
	<path class="st20" d="M643.05,276.47c9.6,1.7,10.9,4.5,7.86,14.97c-2.56,0-5.19,0-7.86,0
		C643.05,286.35,643.05,281.53,643.05,276.47z"/>
	<path class="st19" d="M697.12,231.71c2.67,3.97,5.34,7.94,8.76,13.01c-4.58,0.9-7.87,1.54-12.41,2.43c0.51-5.8,0.9-10.35,1.3-14.89
		C695.56,232.08,696.34,231.9,697.12,231.71z"/>
	<path class="st16" d="M636.76,189.21c-4.14-0.68-8.27-1.35-12.95-2.12c0.7-3.61,1.29-6.62,1.89-9.68
		C636.4,180.76,637.87,182.29,636.76,189.21z"/>
	<path class="st18" d="M666.06,292.27c1.23-2.72,2.46-5.43,3.68-8.13c7.27,1.31,8.17,3.68,4.11,12.96c-2.69-1.73-5.19-3.33-7.7-4.93
		C666.15,292.18,666.06,292.27,666.06,292.27z"/>
	<path class="st20" d="M562.14,210.76c-0.62-0.13-1.24-0.25-1.86-0.38c-0.25-0.35-0.77-0.74-0.72-1.04c0.41-2.41,0.93-4.81,1.41-7.2
		c1.64,0.66,4.25,0.96,4.73,2.06C566.99,207.2,566.58,210.15,562.14,210.76z"/>
	<path class="st21" d="M649.05,366.13c8.79,0.85,5.1,6.13,6.25,10.36C646.6,375.85,651.3,369.95,649.05,366.13z"/>
	<path class="st22" d="M235.49,406.97c0.46,3.9,0.92,7.8,1.38,11.69c-0.54,5.66-1.09,11.32-1.63,16.99
		c-0.59-0.04-1.17-0.08-1.76-0.12C234.14,426.01,234.81,416.49,235.49,406.97z"/>
	<path class="st23" d="M585.51,143.33c0.41,7.16,0.88,14.32,1.19,21.49c0.16,3.63,0.04,7.27,0.04,10.91
		c-0.46-5.87-1.09-11.74-1.33-17.61C585.21,153.19,585.46,148.25,585.51,143.33z"/>
	<path class="st21" d="M642.48,364.87c0.19,1.57,0.37,3.15,0.56,4.72c-0.36,0.03-0.71,0.07-1.07,0.1c-0.13-1.29-0.26-2.58-0.38-3.88
		C641.89,365.51,642.19,365.19,642.48,364.87z"/>
	<path class="st17" d="M522.77,454.18c-0.89,0.22-1.78,0.45-2.67,0.67c-0.08-0.26-0.15-0.52-0.23-0.78
		c0.73-0.21,1.46-0.41,2.19-0.62C522.3,453.69,522.54,453.93,522.77,454.18z"/>
	<path class="st0" d="M295.25,235.45c0.55,0.01,1.11,0.02,1.66,0.03c-0.24,0.4-0.48,0.8-0.72,1.21
		C295.87,236.27,295.56,235.86,295.25,235.45z"/>
	<path class="st2" d="M574.6,201.31c0.26,0.26,0.51,0.52,0.77,0.78c-0.44-0.09-0.88-0.18-1.32-0.26
		C574.23,201.65,574.41,201.48,574.6,201.31z"/>
	<path class="st0" d="M629,540.82c0,0.15,0.06,0.34-0.02,0.42c-0.1,0.12-0.3,0.15-0.46,0.22c0-0.29,0.01-0.58,0.01-0.87
		C628.69,540.67,628.85,540.75,629,540.82z"/>
	<path class="st24" d="M566.12,227.33c-6.5,7.95-13.25,15.73-19.47,23.87c-17.7,23.15-28.61,48.97-33.43,77.16
		c-1.59-15.29-0.2-30.32,4.69-44.88c3.28-9.75,7.57-19.2,11.41-28.79c0.12-0.37,0.25-0.74,0.38-1.11c-0.25,0.26-0.5,0.51-0.74,0.77
		c-7.31,6.88-14.61,13.77-21.82,20.56c-15.45-18.02-21.66-52.56-12.2-65.46c1.96,4.07,3.15,8.29,5.73,11.54
		c5.55,6.99,11.32,13.95,17.93,20.03c5.44,4.99,10.75,0.09,16.07-2.02c10.4-4.12,21.01-7.76,31.53-11.6L566.12,227.33z"/>
	<path class="st24" d="M566.19,227.4c0.19-0.23,0.39-0.45,0.58-0.68c-0.02,0.14,0.01,0.34-0.08,0.4c-0.16,0.11-0.38,0.15-0.58,0.21
		C566.12,227.33,566.19,227.4,566.19,227.4z"/>
	<path class="st25" d="M595.83,242.24c14-9.43,31.89-9.5,39.91,0C622.39,242.24,609.2,242.24,595.83,242.24z"/>
	<path class="st1" d="M605.07,338.09c0.13,0.02,0.35-0.01,0.39,0.05c0.08,0.15,0.08,0.34,0.11,0.52c-0.22-0.03-0.45-0.05-0.67-0.08
		C604.95,338.42,605.01,338.25,605.07,338.09z"/>
	<path class="st1" d="M705.75,276.79c-0.89-1.02-1.78-2.03-2.68-3.05c0.44-0.35,0.88-0.69,1.33-1.04c0.83,1,1.66,1.99,2.49,2.98
		C706.52,276.04,706.14,276.41,705.75,276.79z"/>
	<path class="st2" d="M528.96,254.35c0.25-0.26,0.5-0.51,0.74-0.77c-0.13,0.37-0.25,0.74-0.38,1.11
		C529.33,254.7,528.96,254.35,528.96,254.35z"/>
</g>
<path class="st5" d="M571.55,659.45c-42.8-50.64-68.07-115.25-71.15-181.47c-0.3-6.41-10.3-6.44-10,0
	c3.2,69.01,29.49,135.78,74.07,188.54C568.64,671.44,575.68,664.34,571.55,659.45z"/>
</svg>
